<?xml version="1.0" encoding="utf-8"?>
<svg xmlns="http://www.w3.org/2000/svg" fill="none" height="24" viewBox="0 0 24 24" width="24">
<path clip-rule="evenodd" d="M12.3435 7.1644C12.8843 7.89045 12.8728 8.24219 12.8664 8.31654C12.8082 8.36324 12.5221 8.56826 11.618 8.52219C10.6072 8.47069 9.25358 8.09583 7.84696 7.3442C6.44033 6.59256 5.37638 5.6756 4.77181 4.86396C4.231 4.13791 4.24247 3.78617 4.24893 3.71181C4.30715 3.66511 4.59319 3.4601 5.49735 3.50616C6.5081 3.55766 7.86172 3.93253 9.26835 4.68416C10.675 5.43579 11.7389 6.35275 12.3435 7.1644ZM11.0937 9.98273C9.90719 9.84621 8.51918 9.40412 7.14003 8.66717C5.68963 7.89215 4.50488 6.92773 3.73217 5.97045C3.65345 6.45055 3.60437 6.94169 3.61608 7.43989C3.6456 8.6959 4.07004 9.91092 5.52555 10.8665C6.82353 11.7187 8.09855 11.6449 9.31891 11.1035C9.94053 10.8278 10.5383 10.433 11.0937 9.98273ZM13.6872 9.57902C12.7314 10.6242 11.4308 11.8077 9.92717 12.4747C8.35069 13.174 6.51817 13.3127 4.70229 12.1204C2.75968 10.845 2.15531 9.1265 2.11649 7.47514C2.08724 6.23043 2.38636 4.97002 2.6119 4.01968C2.67057 3.77248 2.72425 3.54626 2.76589 3.34676C2.78751 3.24314 2.82955 3.14902 2.88693 3.06772C2.89738 3.04549 2.90842 3.02349 2.92005 3.00173C3.70298 1.53652 6.86171 1.69746 9.97528 3.36119C13.0888 5.02492 14.9782 7.56142 14.1953 9.02663C14.0772 9.24761 13.9051 9.4316 13.6872 9.57902Z" fill="#676F78" fill-rule="evenodd"/>
<path clip-rule="evenodd" d="M22.5884 14.8061C22.5912 14.8622 22.5868 14.9196 22.5745 14.9773C22.2918 16.2972 21.7529 17.9498 20.7574 19.275C19.7434 20.6247 18.2182 21.6721 16.0384 21.6057C13.7156 21.5349 12.2393 20.4185 11.3221 19.0984C10.4262 17.8089 10.0491 16.311 9.85078 15.3764C9.83727 15.3127 9.83353 15.2492 9.83861 15.1873C9.79645 13.6522 12.578 12.2612 16.0811 12.0729C19.6061 11.8835 22.5268 12.9835 22.6048 14.5299C22.6095 14.6225 22.6038 14.7147 22.5884 14.8061ZM20.0615 13.9482C20.8976 14.263 21.0678 14.5485 21.1003 14.6108C21.0742 14.6762 20.9336 14.9784 20.1338 15.3812C19.2396 15.8315 17.8855 16.1911 16.293 16.2767C14.7005 16.3623 13.3176 16.1498 12.383 15.7978C11.547 15.4829 11.3767 15.1975 11.3442 15.1352C11.3703 15.0697 11.5109 14.7675 12.3108 14.3647C13.2049 13.9145 14.559 13.5548 16.1515 13.4692C17.744 13.3836 19.1269 13.5962 20.0615 13.9482ZM20.4761 16.7788C19.3818 17.2573 17.9463 17.588 16.3634 17.673C14.6647 17.7643 13.1064 17.5562 11.9389 17.1429C12.1107 17.5484 12.3215 17.9527 12.583 18.329C13.2955 19.3546 14.3663 20.1549 16.1033 20.2078C17.6436 20.2547 18.729 19.5501 19.5324 18.4806C19.9166 17.9692 20.2272 17.3837 20.4761 16.7788Z" fill="#676F78" fill-rule="evenodd"/>
</svg>