<?xml version="1.0" encoding="utf-8"?>
<svg xmlns="http://www.w3.org/2000/svg" fill="none" height="24" viewBox="0 0 24 24" width="24">
<path d="M21.8454 3.43621C21.8118 2.90977 21.375 2.5 20.8474 2.5H17.1426C16.6148 2.5 16.1779 2.9102 16.1446 3.43695L15.62 11.742H12.0701V8.07073C12.0701 7.90841 11.8869 7.8137 11.7545 7.90753L7.23567 11.1086V8.07035C7.23567 7.90811 7.05265 7.81338 6.92019 7.90706L1.4226 11.795C1.15756 11.9824 1 12.2868 1 12.6114V20.5C1 21.0523 1.44772 21.5 2 21.5H21.934C22.5114 21.5 22.9688 21.0124 22.932 20.4362L21.8454 3.43621ZM11.1592 20.0926H6.3482V17.5358H11.1592V20.0926ZM15.0828 20.0926H12.5605V17.1284C12.5605 16.5761 12.1128 16.1284 11.5605 16.1284H5.94692C5.39464 16.1284 4.94692 16.5761 4.94692 17.1284V20.0926H2.40127V12.821L5.8344 10.3815V13.4194C5.8344 13.5817 6.01756 13.6764 6.15001 13.5826L10.6688 10.3815V13.1494H15.5265L15.0828 20.0926ZM20.4544 3.90741L20.6178 6.11235H17.3949L17.535 3.90741H20.4544ZM16.4841 20.0926L17.3015 7.51975H20.6879L21.5053 20.0926H16.4841Z" fill="#676F78" stroke="#676F78" stroke-width="0.09"/>
</svg>