<?xml version="1.0" encoding="utf-8"?>
<svg xmlns="http://www.w3.org/2000/svg" fill="none" height="24" viewBox="0 0 24 24" width="24">
<path clip-rule="evenodd" d="M6.30727 2.5H8.51339L12.0379 5.35045H6.30727V2.5ZM17.6937 5.35045H14.4233L10.8988 2.5H15.79L21.5005 7.43967V12.5593L18.4437 9.84611V6.10045C18.4437 5.68624 18.1079 5.35045 17.6937 5.35045ZM22.2505 1H8.78532H8.77301H5.55727C5.14306 1 4.80727 1.33579 4.80727 1.75V5.45627H1.75002C1.33581 5.45627 1.00002 5.79206 1.00002 6.20627V22.2486C1.00002 22.6628 1.33581 22.9986 1.75002 22.9986H17.5646C17.9788 22.9986 18.3146 22.6628 18.3146 22.2486V18.5423H22.2505C22.6647 18.5423 23.0005 18.2065 23.0005 17.7923V14.2381V14.2181V7.10437V7.08986V1.75C23.0005 1.33579 22.6647 1 22.2505 1ZM21.5005 2.5V5.45634L18.0828 2.5H21.5005ZM18.4437 11.8518L21.5005 14.5649V17.0423H18.4437V11.8518ZM2.50002 6.95627V21.4986H4.86865L4.74535 11.2649C4.74036 10.8507 5.07208 10.5109 5.48626 10.5059C5.90044 10.5009 6.24025 10.8326 6.24524 11.2468L6.36876 21.4986H13.1572L13.1449 15.2535C12.7595 15.4563 12.3207 15.5712 11.8539 15.5712C10.4307 15.5712 9.26878 14.5034 9.08054 13.1331C9.05456 13.0571 9.04046 12.9755 9.04046 12.8906V6.95627H2.50002ZM10.5405 10.2416C10.9313 10.0314 11.378 9.91205 11.8539 9.91205C13.4101 9.91205 14.6539 11.1887 14.6539 12.7416C14.6539 12.8406 14.6489 12.9384 14.639 13.0348L14.6406 13.0348L14.6572 21.4986H16.8146V6.95627H10.5405V10.2416ZM10.5539 12.7416C10.5539 11.997 11.1461 11.4121 11.8539 11.4121C12.5617 11.4121 13.1539 11.997 13.1539 12.7416C13.1539 13.4862 12.5617 14.0712 11.8539 14.0712C11.1461 14.0712 10.5539 13.4862 10.5539 12.7416Z" fill="#676F78" fill-rule="evenodd"/>
</svg>