<?xml version="1.0" encoding="utf-8"?>
<svg xmlns="http://www.w3.org/2000/svg" fill="none" height="24" viewBox="0 0 24 24" width="24">
<path clip-rule="evenodd" d="M12.4088 1.12045L21.5258 6.73465C21.8044 6.84387 22.0018 7.11495 22.0022 7.43217L22.0022 7.44496L22.0022 7.45511V17.6507C22.0126 17.8723 21.9237 18.0905 21.7572 18.2416C21.6978 18.2957 21.6297 18.3404 21.5552 18.3734L12.4209 22.8732C12.3012 22.9541 12.1568 23.0014 12.0014 23.0014C11.8512 23.0014 11.7113 22.9572 11.594 22.8812L2.48581 18.3942C2.20232 18.2871 2.0007 18.0133 2.0007 17.6923V7.4798C1.99937 7.44896 1.99995 7.41815 2.00239 7.38754C2.02144 7.1029 2.19929 6.86174 2.44812 6.7519L11.6077 1.11148C11.7511 1.0232 11.9125 0.988954 12.0682 1.00307C12.1428 1.00971 12.2172 1.02763 12.2888 1.05745C12.3304 1.07471 12.3706 1.09575 12.4088 1.12045ZM8.83849 9.60643L12.0022 11.165L19.7008 7.37238L16.3965 5.33762C16.3874 5.34323 16.3782 5.34868 16.3689 5.35396L8.83849 9.60643ZM7.20926 8.80381L4.30225 7.37173L12.001 2.63091L14.9379 4.43942L7.20926 8.80381ZM12.7514 12.468V21.0382L20.5022 17.22V8.64973L12.7514 12.468ZM3.5007 17.222V8.64899L11.2514 12.4673V21.0403L3.5007 17.222ZM19.4008 12.2263C19.5843 12.5976 19.4321 13.0474 19.0608 13.231L14.5756 15.4481C14.2043 15.6317 13.7545 15.4794 13.5709 15.1081C13.3874 14.7368 13.5396 14.287 13.9109 14.1034L18.3961 11.8863C18.7674 11.7027 19.2172 11.8549 19.4008 12.2263Z" fill="#676F78" fill-rule="evenodd"/>
</svg>